<svg width="96" height="96" viewBox="0 0 96 96" fill="none" xmlns="http://www.w3.org/2000/svg">
<path d="M34.408 38.244L24.594 43.674C24.226 43.876 24 44.252 24 44.658V55.524C24 55.93 24.226 56.304 24.594 56.508L34.41 61.942C34.776 62.144 35.23 62.144 35.596 61.942L45.41 56.508C45.774 56.304 46 55.93 46 55.524V44.658C46 44.252 45.774 43.878 45.406 43.674L35.594 38.244C35.41 38.142 35.204 38.092 35 38.092C34.794 38.092 34.59 38.142 34.406 38.244M84.902 48.026L83.266 48.93C83.204 48.964 83.168 49.026 83.168 49.094V50.906C83.168 50.974 83.206 51.036 83.266 51.07L84.902 51.976C84.964 52.01 85.038 52.01 85.1 51.976L86.736 51.07C86.796 51.036 86.834 50.974 86.834 50.906V49.094C86.834 49.026 86.796 48.964 86.734 48.93L85.098 48.026C85.068 48.008 85.034 48 85 48C84.966 48 84.932 48.008 84.902 48.026Z" fill="#388E3C"/>
<path d="M71.502 26.728L66.724 24.062C66.574 23.978 66.39 23.98 66.242 24.068C66.094 24.156 66.002 24.314 66.002 24.486L66 40.59L61.594 38.152C61.41 38.05 61.204 38 61 38C60.796 38 60.59 38.05 60.406 38.152H60.408L50.594 43.582C50.226 43.784 50 44.16 50 44.564V55.43C50 55.836 50.226 56.21 50.594 56.414L60.41 61.848C60.776 62.05 61.23 62.05 61.596 61.848L71.41 56.414C71.774 56.212 72 55.836 72 55.43V27.576C72 27.224 71.808 26.9 71.502 26.728ZM65.732 52.916L61.272 55.386C61.106 55.478 60.9 55.478 60.734 55.386L56.272 52.916C56.102 52.824 56 52.652 56 52.468V47.528C56 47.344 56.102 47.174 56.27 47.08L60.732 44.612C60.816 44.566 60.906 44.544 61 44.544C61.094 44.544 61.186 44.568 61.27 44.612L65.73 47.08C65.898 47.174 66 47.346 66 47.53V52.47C66 52.652 65.898 52.824 65.732 52.916Z" fill="#37474F"/>
<path d="M34.408 38.244L24 55.524C24 55.93 24.226 56.304 24.594 56.508L34.41 61.942C34.776 62.144 35.23 62.144 35.596 61.942L46 44.658C46 44.252 45.774 43.878 45.406 43.674L35.594 38.244C35.41 38.142 35.204 38.092 35 38.092C34.794 38.092 34.59 38.142 34.406 38.244" fill="#2E7D32"/>
<path d="M34.408 38.244L24.594 43.674C24.226 43.876 24 44.252 24 44.658L34.408 61.942C34.774 62.144 35.228 62.144 35.594 61.942L45.408 56.508C45.774 56.304 46 55.93 46 55.524L35.594 38.244C35.41 38.142 35.204 38.092 35 38.092C34.794 38.092 34.59 38.142 34.406 38.244" fill="#4CAF50"/>
<path d="M95.406 43.582L85.594 38.152C85.41 38.05 85.204 38 85 38C84.796 38 84.59 38.05 84.406 38.152L74.594 43.582C74.228 43.784 74 44.168 74 44.588V55.41C74 55.828 74.228 56.214 74.594 56.416L84.41 61.85C84.778 62.054 85.228 62.054 85.596 61.85L90.122 59.344C90.536 59.114 90.534 58.52 90.118 58.292L80.27 52.918C80.104 52.824 80 52.65 80 52.462V47.53C80 47.346 80.1 47.176 80.26 47.088L84.73 44.616H84.728C84.812 44.57 84.904 44.548 84.998 44.548C85.092 44.548 85.184 44.572 85.268 44.616L89.738 47.09C89.898 47.178 89.998 47.348 89.998 47.532V51.556C89.998 51.728 90.09 51.888 90.24 51.974C90.39 52.058 90.574 52.058 90.724 51.972L95.52 49.186C95.816 49.014 96 48.696 96 48.352V44.592C96 44.17 95.772 43.784 95.406 43.582ZM21.406 43.582L11.594 38.152C11.41 38.05 11.204 38 11 38C10.796 38 10.59 38.05 10.406 38.152L0.594 43.582C0.228 43.784 0 44.168 0 44.588V59.518C0 59.69 0.092 59.85 0.242 59.936C0.392 60.02 0.576 60.02 0.726 59.934L5.522 57.148C5.818 56.976 6 56.658 6 56.314V47.528C6 47.344 6.1 47.174 6.26 47.086L10.73 44.614C10.814 44.568 10.906 44.546 11 44.546C11.094 44.546 11.186 44.57 11.27 44.614L15.74 47.088C15.9 47.176 16 47.346 16 47.53V56.316C16 56.66 16.182 56.978 16.48 57.15L21.276 59.936C21.426 60.022 21.61 60.022 21.76 59.938C21.908 59.85 22 59.69 22 59.518V44.59C22 44.17 21.772 43.784 21.406 43.582Z" fill="#37474F"/>
</svg>
